<svg xmlns="http://www.w3.org/2000/svg" width="768" height="355" viewBox="0 0 768 355" xmlns:xlink="http://www.w3.org/1999/xlink" xmlns:ev="http://www.w3.org/2001/xml-events"><style type="text/css"><![CDATA[
.st8 {fill:#1f6391;font-family:Times New Roman;font-size:10pt}
.st7 {fill:#1f6391;font-family:Times New Roman;font-size:13pt;font-style:italic;font-weight:bold}
.st2 {fill:#1f6391;font-family:Times New Roman;font-size:16pt;font-style:italic}
.st4 {fill:#1f6391;font-family:Times New Roman;font-size:7pt;font-style:italic}
.st9 {fill:#1f6391;font-family:Times New Roman;font-size:7pt;font-weight:bold}
.st3 {fill:#1f6391;font-family:Times New Roman;font-size:7pt}
.st6 {fill:#ffffff;font-family:Times New Roman;font-size:18pt;font-style:italic}
.st1 {fill:#ffffff;font-family:宋体;font-size:10pt}
.st5 {font-style:normal}
]]></style><defs/><g transform="translate(5,5)" id="page1"><rect x="0" width="758" height="345" fill="#ffffff" stroke="#808080" y="0"/><g transform="translate(47,47)" id="shape1"><path fill="#ffaf00" stroke="#ffaf00" d="M0,15C0,6.7,6.7,0,15,0C23.3,0,30,6.7,30,15C30,23.3,23.3,30,15,30C6.7,30,0,23.3,0,15z"/><text class="st1"><tspan x="11.2" y="20.2">1</tspan></text></g><g transform="translate(43.5,214)"><path transform="translate(2,8.5)" fill="#eb6d71" stroke="#eb6d71" id="shape2" d="M0,15C0,6.7,6.7,0,15,0C23.3,0,30,6.7,30,15C30,23.3,23.3,30,15,30C6.7,30,0,23.3,0,15z"/><g id="shape3"><text class="st2"><tspan x="12" y="27.4">x</tspan></text></g><g transform="translate(8,12)" id="shape4"><text class="st3"><tspan x="12.8" y="19.7">D</tspan></text></g></g><g transform="translate(44.5,134)"><path transform="translate(2,8.5)" fill="#eb6d71" stroke="#eb6d71" id="shape5" d="M0,15C0,6.7,6.7,0,15,0C23.3,0,30,6.7,30,15C30,23.3,23.3,30,15,30C6.7,30,0,23.3,0,15z"/><g id="shape6"><text class="st2"><tspan x="12" y="27.4">x</tspan></text></g><g transform="translate(6,12)" id="shape7"><text class="st3"><tspan x="14.4" y="19.7">2</tspan></text></g></g><g transform="translate(44.5,87)"><path transform="translate(2,8.5)" fill="#eb6d71" stroke="#eb6d71" id="shape8" d="M0,15C0,6.7,6.7,0,15,0C23.3,0,30,6.7,30,15C30,23.3,23.3,30,15,30C6.7,30,0,23.3,0,15z"/><g transform="translate(0,-0)" id="shape9"><text class="st2"><tspan x="12" y="27.4">x</tspan></text></g><g transform="translate(6,12)" id="shape10"><text class="st3"><tspan x="14.4" y="19.7">1</tspan></text></g></g><path transform="translate(56,181)" fill="#000000" stroke="#527294" id="shape11" d="M0,5.5C0,2.5,2.5,0,5.5,0C8.5,0,11,2.5,11,5.5C11,8.5,8.5,11,5.5,11C2.5,11,0,8.5,0,5.5z"/><path transform="translate(56,193)" fill="#000000" stroke="#527294" id="shape12" d="M0,5.5C0,2.5,2.5,0,5.5,0C8.5,0,11,2.5,11,5.5C11,8.5,8.5,11,5.5,11C2.5,11,0,8.5,0,5.5z"/><path transform="translate(56,206)" fill="#000000" stroke="#527294" id="shape13" d="M0,5.5C0,2.5,2.5,0,5.5,0C8.5,0,11,2.5,11,5.5C11,8.5,8.5,11,5.5,11C2.5,11,0,8.5,0,5.5z"/><g transform="translate(172,43)"><path transform="translate(2,8.5)" fill="#1bbc9d" stroke="#eb6d71" id="shape14" d="M0,15C0,6.7,6.7,0,15,0C23.3,0,30,6.7,30,15C30,23.3,23.3,30,15,30C6.7,30,0,23.3,0,15z"/><g id="shape15"><text class="st2"><tspan x="9.6" y="27.4">w</tspan></text></g><g transform="translate(6,12)" id="shape16"><text class="st4"><tspan class="st5" x="14.4" y="19.7">0</tspan></text></g></g><g transform="translate(172,94)"><path transform="translate(2,8.5)" fill="#1bbc9d" stroke="#eb6d71" id="shape17" d="M0,15C0,6.7,6.7,0,15,0C23.3,0,30,6.7,30,15C30,23.3,23.3,30,15,30C6.7,30,0,23.3,0,15z"/><g id="shape18"><text class="st2"><tspan x="9.6" y="27.4">w</tspan></text></g><g transform="translate(6,12)" id="shape19"><text class="st4"><tspan class="st5" x="14.4" y="19.7">1</tspan></text></g></g><g transform="translate(172,149)"><path transform="translate(2,8.5)" fill="#1bbc9d" stroke="#eb6d71" id="shape20" d="M0,15C0,6.7,6.7,0,15,0C23.3,0,30,6.7,30,15C30,23.3,23.3,30,15,30C6.7,30,0,23.3,0,15z"/><g id="shape21"><text class="st2"><tspan x="9.6" y="27.4">w</tspan></text></g><g transform="translate(6,12)" id="shape22"><text class="st4"><tspan class="st5" x="14.4" y="19.7">2</tspan></text></g></g><g transform="translate(172,214)"><path transform="translate(2,8.5)" fill="#1bbc9d" stroke="#eb6d71" id="shape23" d="M0,15C0,6.7,6.7,0,15,0C23.3,0,30,6.7,30,15C30,23.3,23.3,30,15,30C6.7,30,0,23.3,0,15z"/><g id="shape24"><text class="st2"><tspan x="9.6" y="27.4">w</tspan></text></g><g transform="translate(6,12)" id="shape25"><text class="st4"><tspan class="st5" x="12.8" y="19.7">D</tspan></text></g></g><g transform="translate(311.74,127.74)" id="shape26"><path fill="#eb6d71" stroke="#eb6d71" d="M0,25.6C0,11.5,11.5,0,25.6,0C39.8,0,51.3,11.5,51.3,25.6C51.3,39.8,39.8,51.3,25.6,51.3C11.5,51.3,0,39.8,0,25.6z"/><text class="st6"><tspan x="22.5" y="33.6">f</tspan></text></g><g transform="translate(75.5,237.5)" id="shape27"><path stroke="#236ea1" fill="none" d="M0,0L94.1,0"/><path stroke-linecap="round" fill="#236ea1" stroke="#236ea1" d="M98.5,0L93.3,-3C93.8,-2.1,94.1,-1.1,94.1,0C94.1,1.1,93.8,2.1,93.3,3L98.5,0" stroke-width="1"/></g><g transform="matrix(1,0.05,-0.05,1,77,62)" id="shape28"><path stroke="#236ea1" fill="none" d="M0,0L92.7,0"/><path stroke-linecap="round" fill="#236ea1" stroke="#236ea1" d="M97.1,0L91.9,-3C92.4,-2.1,92.7,-1.1,92.7,0C92.7,1.1,92.4,2.1,91.9,3L97.1,0" stroke-width="1"/></g><g transform="matrix(1,0.07,-0.07,1,76.5,110.5)" id="shape29"><path stroke="#236ea1" fill="none" d="M0,0L93.4,0"/><path stroke-linecap="round" fill="#236ea1" stroke="#236ea1" d="M97.8,0L92.6,-3C93.1,-2.1,93.4,-1.1,93.4,0C93.4,1.1,93.1,2.1,92.6,3L97.8,0" stroke-width="1"/></g><g transform="matrix(0.99,0.15,-0.15,0.99,76.5,157.5)" id="shape30"><path stroke="#236ea1" fill="none" d="M0,0L94.3,0"/><path stroke-linecap="round" fill="#236ea1" stroke="#236ea1" d="M98.6,0L93.5,-3C94,-2.1,94.3,-1.1,94.3,0C94.3,1.1,94,2.1,93.5,3L98.6,0" stroke-width="1"/></g><g transform="translate(79,208)" id="shape31"><path stroke="#236ea1" fill="none" d="M0,0L56.6,0"/><path stroke-linecap="round" fill="#236ea1" stroke="#236ea1" d="M61,0L55.8,-3C56.3,-2.1,56.6,-1.1,56.6,0C56.6,1.1,56.3,2.1,55.8,3L61,0" stroke-width="1"/></g><g transform="matrix(0.8,0.6,-0.6,0.8,204,66.5)" id="shape32"><path stroke="#236ea1" fill="none" d="M0,0L128.1,0"/><path stroke-linecap="round" fill="#236ea1" stroke="#236ea1" d="M132.5,0L127.3,-3C127.8,-2.1,128.1,-1.1,128.1,0C128.1,1.1,127.8,2.1,127.3,3L132.5,0" stroke-width="1"/></g><g transform="matrix(0.95,0.32,-0.32,0.95,204,117.5)" id="shape33"><path stroke="#236ea1" fill="none" d="M0,0L109.2,0"/><path stroke-linecap="round" fill="#236ea1" stroke="#236ea1" d="M113.6,0L108.4,-3C108.9,-2.1,109.2,-1.1,109.2,0C109.2,1.1,108.9,2.1,108.4,3L113.6,0" stroke-width="1"/></g><g transform="matrix(0.98,-0.17,0.17,0.98,204,172.5)" id="shape34"><path stroke="#236ea1" fill="none" d="M0,0L105,0"/><path stroke-linecap="round" fill="#236ea1" stroke="#236ea1" d="M109.4,0L104.2,-3C104.7,-2.1,105,-1.1,105,0C105,1.1,104.7,2.1,104.2,3L109.4,0" stroke-width="1"/></g><g transform="matrix(0.81,-0.59,0.59,0.81,204,237.5)" id="shape35"><path stroke="#236ea1" fill="none" d="M0,0L126.3,0"/><path stroke-linecap="round" fill="#236ea1" stroke="#236ea1" d="M130.7,0L125.5,-3C126,-2.1,126.3,-1.1,126.3,0C126.3,1.1,126,2.1,125.5,3L130.7,0" stroke-width="1"/></g><path transform="translate(416.5,113)" fill="#83b3e3" stroke="#ffd4aa" id="shape36" d="M0,40.5C0,18.1,18.1,0,40.5,0C62.9,0,81,18.1,81,40.5C81,62.9,62.9,81,40.5,81C18.1,81,0,62.9,0,40.5z"/><path transform="matrix(-0.71,0.71,-0.71,-0.71,480.5,124.9)" stroke="#118972" fill="none" id="shape37" d="M0,0C29.3,31.9,31.5,-25.5,60.8,0"/><g transform="translate(426.5,169.87)" id="shape38"><path stroke="#118972" fill="none" d="M0,0L56.6,0"/><path stroke-linecap="round" fill="#118972" stroke="#118972" d="M61,0L55.8,-3C56.3,-2.1,56.6,-1.1,56.6,0C56.6,1.1,56.3,2.1,55.8,3L61,0" stroke-width="1"/></g><g transform="matrix(0,-1,1,0,456.5,192.9)" id="shape39"><path stroke="#118972" fill="none" d="M0,0L70.6,0"/><path stroke-linecap="round" fill="#118972" stroke="#118972" d="M75,0L69.8,-3C70.3,-2.1,70.6,-1.1,70.6,0C70.6,1.1,70.3,2.1,69.8,3L75,0" stroke-width="1"/></g><g transform="matrix(1,0,-0,1,363,153.4)" id="shape40"><path stroke="#236ea1" fill="none" d="M0,0L49.1,0"/><path stroke-linecap="round" fill="#236ea1" stroke="#236ea1" d="M53.5,0L48.3,-3C48.8,-2.1,49.1,-1.1,49.1,0C49.1,1.1,48.8,2.1,48.3,3L53.5,0" stroke-width="1"/></g><path transform="translate(566,113.06)" fill="#adcedc" stroke="#b2bcbc" id="shape41" d="M0,40.8C0,18.3,18.3,0,40.8,0C63.4,0,81.6,18.3,81.6,40.8C81.6,63.4,63.4,81.6,40.8,81.6C18.3,81.6,0,63.4,0,40.8z"/><g transform="translate(584,156)" id="shape42"><path stroke="#236ea1" fill="none" d="M0,0L38.6,0"/><path stroke-linecap="round" fill="#236ea1" stroke="#236ea1" d="M43,0L37.8,-3C38.3,-2.1,38.6,-1.1,38.6,0C38.6,1.1,38.3,2.1,37.8,3L43,0" stroke-width="1"/></g><g transform="matrix(0,-1,1,0,599,179)" id="shape43"><path stroke="#236ea1" fill="none" d="M0,0L51.6,0"/><path stroke-linecap="round" fill="#236ea1" stroke="#236ea1" d="M56,0L50.8,-3C51.3,-2.1,51.6,-1.1,51.6,0C51.6,1.1,51.3,2.1,50.8,3L56,0" stroke-width="1"/></g><path transform="translate(600,137)" stroke="#236ea1" fill="none" id="shape44" d="M0,0L19,0"/><g transform="matrix(1,0.01,-0.01,1,497.5,153.5)" id="shape45"><path stroke="#236ea1" fill="none" d="M0,0L64.1,0"/><path stroke-linecap="round" fill="#236ea1" stroke="#236ea1" d="M68.5,0L63.3,-3C63.8,-2.1,64.1,-1.1,64.1,0C64.1,1.1,63.8,2.1,63.3,3L68.5,0" stroke-width="1"/></g><g transform="translate(647.63,153.87)" id="shape46"><path stroke="#236ea1" fill="none" d="M0,0L32,0"/><path stroke-linecap="round" fill="#236ea1" stroke="#236ea1" d="M36.4,0L31.2,-3C31.7,-2.1,32,-1.1,32,0C32,1.1,31.7,2.1,31.2,3L36.4,0" stroke-width="1"/></g><g transform="translate(680,136)" id="shape47"><text class="st7"><tspan x="15.2" y="22.1">y</tspan></text></g><g transform="translate(424,203)" id="shape48"><text class="st8"><tspan x="12.8" y="19.5">Sigmoid </tspan><tspan x="11.2" y="35.5">Function</tspan></text></g><g transform="translate(576.31,207.5)" id="shape49"><text class="st8"><tspan x="4" y="23">Quantizer</tspan></text></g><path transform="translate(41,41)" stroke="#000000" fill="none" id="shape50" d="M43.5,227L43.5,0L0,0L0,227L43.5,227z" stroke-width="2"/><g transform="translate(44,261)"><g transform="translate(0,0)" id="shape51"><text class="st2"><tspan x="9.6" y="27.4">X</tspan></text></g><g transform="translate(10.5,12.5)" id="shape52"><text class="st9"><tspan x="14.4" y="19.7">1</tspan></text></g></g><g transform="translate(687,144)" id="shape53"><text class="st9"><tspan x="14.4" y="19.7">1</tspan></text></g></g></svg>